<svg width="500" height="500" viewBox="0 0 500 500" fill="none" xmlns="http://www.w3.org/2000/svg">
<g clip-path="url(#clip0_1_154)">
<g clip-path="url(#clip1_1_154)">
<path d="M503.971 0L275.122 169.332L317.678 69.5391L503.971 0Z" fill="#E17726"/>
<path d="M-4.10291 0.198975L181.691 69.5513L222.1 170.653L-4.10291 0.198975Z" fill="#E27625"/>
<path d="M411.875 360.121L513.022 362.046L477.673 482.134L354.251 448.151L411.875 360.121Z" fill="#E27625"/>
<path d="M87.4566 360.121L144.868 448.152L21.6523 482.136L-13.4823 362.046L87.4566 360.121Z" fill="#E27625"/>
<path d="M216.606 144.899L220.74 278.406L97.0507 272.779L132.233 219.701L132.678 219.189L216.606 144.899Z" fill="#E27625"/>
<path d="M281.446 143.41L366.654 219.194L367.095 219.702L402.278 272.78L278.617 278.407L281.446 143.41Z" fill="#E27625"/>
<path d="M148.489 360.508L216.027 413.131L137.573 451.009L148.489 360.508Z" fill="#E27625"/>
<path d="M350.856 360.5L361.545 451.009L283.311 413.127L350.856 360.5Z" fill="#E27625"/>
<path d="M285.037 408.17L364.427 446.612L290.579 481.709L291.345 458.512L285.037 408.17Z" fill="#D5BFB2"/>
<path d="M214.274 408.188L208.213 458.133L208.71 481.682L134.689 446.612L214.274 408.188Z" fill="#D5BFB2"/>
<path d="M191.348 295.831L212.094 339.431L141.462 318.74L191.348 295.831Z" fill="#233447"/>
<path d="M307.982 295.835L358.104 318.739L287.242 339.424L307.982 295.835Z" fill="#233447"/>
<path d="M153.888 360.063L142.471 453.896L81.2773 362.114L153.888 360.063Z" fill="#CC6228"/>
<path d="M345.45 360.063L418.063 362.115L356.64 453.899L345.45 360.063Z" fill="#CC6228"/>
<path d="M404.067 267.474L351.222 321.33L310.48 302.711L290.973 343.719L278.185 273.201L404.067 267.474Z" fill="#CC6228"/>
<path d="M95.2404 267.473L221.145 273.201L208.357 343.719L188.846 302.716L148.318 321.331L95.2404 267.473Z" fill="#CC6228"/>
<path d="M91.6783 256.422L151.466 317.09L153.538 376.984L91.6783 256.422Z" fill="#E27525"/>
<path d="M407.715 256.312L345.745 377.09L348.078 317.089L407.715 256.312Z" fill="#E27525"/>
<path d="M218.222 260.116L220.628 275.262L226.575 312.993L222.752 428.879L204.679 335.786L204.673 334.824L218.222 260.116Z" fill="#E27525"/>
<path d="M281.079 259.907L294.665 334.824L294.659 335.787L276.54 429.112L275.823 405.769L272.996 312.307L281.079 259.907Z" fill="#E27525"/>
<path d="M353.393 314.679L351.369 366.717L288.299 415.857L275.549 406.848L289.841 333.233L353.393 314.679Z" fill="#F5841F"/>
<path d="M146.16 314.68L209.493 333.234L223.784 406.848L211.034 415.857L147.96 366.712L146.16 314.68Z" fill="#F5841F"/>
<path d="M122.621 435.12L203.313 473.353L202.971 457.027L209.723 451.101H289.585L296.581 457.007L296.065 473.322L376.245 435.217L337.23 467.457L290.051 499.861H209.076L161.928 467.325L122.621 435.12Z" fill="#C0AC9D"/>
<path d="M279.257 403.082L290.666 411.141L297.352 464.484L287.676 456.315H211.686L202.195 464.649L208.661 411.145L220.074 403.082H279.257Z" fill="#161616"/>
<path d="M488.863 4.68701L516.333 87.0985L499.178 170.424L511.394 179.849L494.863 192.461L507.286 202.055L490.836 217.038L500.936 224.352L474.132 255.656L364.195 223.647L363.242 223.136L284.019 156.306L488.863 4.68701Z" fill="#763E1A"/>
<path d="M10.4708 4.68701L215.316 156.306L136.093 223.136L135.14 223.647L25.2015 255.656L-1.60164 224.352L8.49015 217.043L-7.9531 202.055L4.44699 192.471L-12.3305 179.823L0.346451 170.393L-17 87.1015L10.4708 4.68701Z" fill="#763E1A"/>
<path d="M358.816 216.646L475.302 250.561L513.146 367.197L413.305 367.197L344.511 368.065L394.541 270.548L358.816 216.646Z" fill="#F5841F"/>
<path d="M140.517 216.647L104.785 270.549L154.821 368.065L86.0613 367.197H-13.603L24.029 250.562L140.517 216.647Z" fill="#F5841F"/>
<path d="M323.383 68.9828L290.801 156.98L283.887 275.857L281.242 313.117L281.032 408.299H218.3L218.096 313.295L215.442 275.824L208.525 156.98L175.948 68.9828H323.383Z" fill="#F5841F"/>
</g>
</g>
<defs>
<clipPath id="clip0_1_154">
<rect width="500" height="500" fill="white"/>
</clipPath>
<clipPath id="clip1_1_154">
<rect width="533.333" height="500" fill="white" transform="translate(-17)"/>
</clipPath>
</defs>
</svg>
