<svg width="500" height="500" viewBox="0 0 500 500" fill="none" xmlns="http://www.w3.org/2000/svg">
<g clip-path="url(#clip0_1_139)">
<g clip-path="url(#clip1_1_139)">
<path d="M250 500C388.071 500 500 388.071 500 250C500 111.929 388.071 0 250 0C111.929 0 0 111.929 0 250C0 388.071 111.929 500 250 500Z" fill="#E6E6E6"/>
<path d="M249.645 354.259C365.98 354.259 460.289 307.695 460.289 250.255C460.289 192.815 365.98 146.251 249.645 146.251C133.309 146.251 39 192.815 39 250.255C39 307.695 133.309 354.259 249.645 354.259Z" stroke="#31A6E0" stroke-width="20" stroke-miterlimit="10"/>
<path d="M160.175 303.256C219.46 403.351 307.584 460.765 357.005 431.494C406.426 402.223 398.43 297.35 339.145 197.255C279.861 97.1596 191.737 39.7454 142.316 69.0167C92.8947 98.2881 100.891 203.16 160.175 303.256Z" stroke="#31A6E0" stroke-width="20" stroke-miterlimit="10"/>
<path d="M160.159 197.239C100.874 297.334 92.8784 402.206 142.3 431.477C191.721 460.749 279.844 403.335 339.129 303.239C398.414 203.144 406.41 98.2716 356.989 69.0003C307.567 39.729 219.444 97.1432 160.159 197.239Z" stroke="#31A6E0" stroke-width="20" stroke-miterlimit="10"/>
<path d="M276.402 281.993H256.48V295.958H248.082V282.188C245.934 282.188 243.687 282.188 241.344 282.091V295.86H232.945V281.896C230.992 281.896 228.941 281.895 226.988 281.798H216.051L217.711 271.739C217.711 271.739 223.961 271.837 223.766 271.739C226.109 271.739 226.793 269.981 226.891 269.005V231.212C226.598 229.552 225.426 227.501 222.105 227.501C222.203 227.403 216.051 227.501 216.051 227.501V218.517H227.672C229.43 218.517 231.187 218.517 233.043 218.419V204.649H241.441V218.126C243.687 218.126 245.934 218.028 248.18 218.028V204.552H256.578V218.321H276.598C276.598 218.321 276.598 227.794 276.598 227.306H241.734V244.688H270.055V253.185H241.734V271.349H274.937L276.402 281.993Z" fill="#103342"/>
</g>
</g>
<defs>
<clipPath id="clip0_1_139">
<rect width="500" height="500" fill="white"/>
</clipPath>
<clipPath id="clip1_1_139">
<rect width="500" height="500" fill="white"/>
</clipPath>
</defs>
</svg>
