<svg width="500" height="500" viewBox="0 0 500 500" fill="none" xmlns="http://www.w3.org/2000/svg">
<g clip-path="url(#clip0_1_140)">
<path d="M249.8 9.1001C377.1 9.1001 480.3 112.3 480.3 239.6C480.3 366.9 377.1 470.1 249.8 470.1C122.5 470.1 19.3 366.9 19.3 239.6C19.3 112.3 122.5 9.1001 249.8 9.1001Z" fill="#0052FF"/>
<path d="M249.9 320.6C205.1 320.6 168.9 284.3 168.9 239.6C168.9 194.9 205.2 158.6 249.9 158.6C290 158.6 323.3 187.8 329.7 226.1H411.3C404.4 142.9 334.8 77.5 249.8 77.5C160.3 77.5 87.7 150.1 87.7 239.6C87.7 329.1 160.3 401.7 249.8 401.7C334.8 401.7 404.4 336.3 411.3 253.1H329.6C323.2 291.4 290 320.6 249.9 320.6Z" fill="white"/>
</g>
<defs>
<clipPath id="clip0_1_140">
<rect width="500" height="500" fill="white"/>
</clipPath>
</defs>
</svg>
